<?xml version="1.0" ?><svg viewBox="0 0 512 512" xmlns="http://www.w3.org/2000/svg"><g id="E-learning_log-in_privacy"><path d="M465.3362,100.5972H343.0619a86.503,86.503,0,1,0-172.1062,0H46.6662a31.56,31.56,0,0,0-31.53,31.53v216.7c0,.0083-.0025.0161-.0025.0244s.0024.0166.0025.0249v41.2212a31.56,31.56,0,0,0,31.53,31.53H218.1875l-10.28,75.1313H183.5215a5,5,0,0,0,0,10h28.7451l.0163-.0015H301.635l.0163.0015h28.7452a5,5,0,0,0,0-10H306.0153l-10.28-75.1313H465.3362a31.5667,31.5667,0,0,0,31.53-31.53V132.127A31.5663,31.5663,0,0,0,465.3362,100.5972Zm0,10a21.55,21.55,0,0,1,21.53,21.53v11.91H325.8678a86.1794,86.1794,0,0,0,15.5689-33.44ZM257.0088,15.2417a76.503,76.503,0,1,1-76.503,76.5029A76.59,76.59,0,0,1,257.0088,15.2417ZM46.6662,110.5972H172.5808a86.1808,86.1808,0,0,0,15.5689,33.44H25.1363v-11.91A21.55,21.55,0,0,1,46.6662,110.5972Zm249.25,386.16h-77.92l10.28-75.13h57.36Zm169.42-85.13H46.6662a21.5565,21.5565,0,0,1-21.53-21.53V353.8511H414.99a5,5,0,1,0,0-10H25.1363V154.0371H197.0524a86.345,86.345,0,0,0,119.9127,0H486.8662v189.814h-49.49a5,5,0,0,0,0,10h49.49v36.2461A21.5566,21.5566,0,0,1,465.3362,411.627Z"/><path d="M255.998,366.063a16.7237,16.7237,0,1,0,16.7236,16.7236A16.7422,16.7422,0,0,0,255.998,366.063Zm0,23.4473a6.7237,6.7237,0,1,1,6.7236-6.7237A6.7318,6.7318,0,0,1,255.998,389.51Z"/><path d="M165.5644,224.9165a5.3156,5.3156,0,0,1-1.0879-.6133,2.3584,2.3584,0,0,1-.9716-1.72,2.98,2.98,0,0,1,.8017-2.3027,15.7756,15.7756,0,0,0,4.1143-12.1485,15.5591,15.5591,0,0,0-13.8926-14.1689,15.7446,15.7446,0,0,0-17.5244,15.6435,15.661,15.661,0,0,0,4.2158,10.71,2.9189,2.9189,0,0,1,.7461,2.4658,2.5761,2.5761,0,0,1-1.2959,1.8867,5.0466,5.0466,0,0,1-.5283.2539,17.7186,17.7186,0,0,0-10.8291,16.5528v.6758a8.8035,8.8035,0,0,0,8.7929,8.7939h29.5118a8.8035,8.8035,0,0,0,8.7929-8.7939v-.5752A17.8783,17.8783,0,0,0,165.5644,224.9165Zm1.8457,17.0293H138.3125v-.47a8.8675,8.8675,0,0,1,5.2558-8.2305,14.2578,14.2578,0,0,0,1.4639-.7031,11.5313,11.5313,0,0,0,5.8213-8.3447,11.8608,11.8608,0,0,0-3.0488-10.0157,6.7422,6.7422,0,1,1,9.8974-.0156,11.986,11.986,0,0,0-3.1543,9.2939,11.4148,11.4148,0,0,0,4.6348,8.1211,14.4226,14.4226,0,0,0,2.915,1.6416l.003.001a9.02,9.02,0,0,1,5.31,8.3526Z"/><path d="M226.5078,141.8823H285.48A14.689,14.689,0,0,0,300.1523,127.21l.0049-44.0117a14.68,14.68,0,0,0-13.7041-14.624V62.0562a29.3833,29.3833,0,1,0-58.7666,0v6.47h-1.1738A14.689,14.689,0,0,0,211.84,83.1978l-.0049,44.0117A14.6893,14.6893,0,0,0,226.5078,141.8823Zm11.1787-79.8261a19.3833,19.3833,0,1,1,38.7666,0v6.47H237.6865ZM221.84,83.1987a4.6787,4.6787,0,0,1,4.6729-4.6728h58.9716a4.6786,4.6786,0,0,1,4.6729,4.6719l-.0049,44.0117a4.6787,4.6787,0,0,1-4.6728,4.6728H226.5078a4.6786,4.6786,0,0,1-4.6729-4.6719Z"/><path d="M251.9941,112.6821v7.34a4,4,0,0,0,8,0v-7.34a13.4512,13.4512,0,1,0-8,0Zm4-18.2959a5.4517,5.4517,0,1,1-5.4512,5.4512A5.4572,5.4572,0,0,1,255.9941,94.3862Z"/><path d="M348.7168,193.3647H198.3945a13.8828,13.8828,0,0,0-13.8672,13.8672v30.3457a13.8836,13.8836,0,0,0,13.8672,13.8682H348.7168a13.8836,13.8836,0,0,0,13.8672-13.8682V207.2319A13.8828,13.8828,0,0,0,348.7168,193.3647Zm3.8672,44.2129a3.8719,3.8719,0,0,1-3.8672,3.8682H198.3945a3.8719,3.8719,0,0,1-3.8672-3.8682V207.2319a3.871,3.871,0,0,1,3.8672-3.8672H348.7168a3.871,3.871,0,0,1,3.8672,3.8672Z"/><path d="M242.1748,216.9624H226.9492a5,5,0,0,0,0,10h15.2256a5,5,0,0,0,0-10Z"/><path d="M281.2959,216.9624H266.07a5,5,0,0,0,0,10h15.2256a5,5,0,0,0,0-10Z"/><path d="M320.416,216.9624H305.19a5,5,0,0,0,0,10H320.416a5,5,0,1,0,0-10Z"/><path d="M348.7168,262.9771H198.3945a13.8828,13.8828,0,0,0-13.8672,13.8671V307.19a13.8828,13.8828,0,0,0,13.8672,13.8672H348.7168A13.8828,13.8828,0,0,0,362.584,307.19V276.8442A13.8828,13.8828,0,0,0,348.7168,262.9771ZM352.584,307.19a3.871,3.871,0,0,1-3.8672,3.8672H198.3945a3.871,3.871,0,0,1-3.8672-3.8672V276.8442a3.871,3.871,0,0,1,3.8672-3.8671H348.7168a3.871,3.871,0,0,1,3.8672,3.8671Z"/><path d="M242.1748,287.0171H226.9492a5,5,0,0,0,0,10h15.2256a5,5,0,0,0,0-10Z"/><path d="M281.2959,287.0171H266.07a5,5,0,0,0,0,10h15.2256a5,5,0,1,0,0-10Z"/><path d="M320.416,287.0171H305.19a5,5,0,1,0,0,10H320.416a5,5,0,0,0,0-10Z"/><path d="M168.2724,283.918v-8.9507a10.36,10.36,0,0,0-10.3476-10.3486h-10.127a10.3606,10.3606,0,0,0-10.3486,10.3486v8.9507a9.482,9.482,0,0,0-4.9766,8.3364v17.2578a9.485,9.485,0,0,0,9.4746,9.4746h21.8272a9.4858,9.4858,0,0,0,9.4756-9.4746V292.2544A9.4822,9.4822,0,0,0,168.2724,283.918Zm-20.4746-10.2993h10.127a1.35,1.35,0,0,1,1.3476,1.3486V282.78H146.4492v-7.8125A1.3507,1.3507,0,0,1,147.7978,273.6187ZM164.25,309.5122a.4753.4753,0,0,1-.4756.4746H141.9472a.4751.4751,0,0,1-.4746-.4746V292.2544a.4751.4751,0,0,1,.4746-.4746h21.8272a.4753.4753,0,0,1,.4756.4746Z"/></g></svg>